<?xml version="1.0" encoding="UTF-8" standalone="no"?>
<!-- Generator: Adobe Illustrator 19.1.0, SVG Export Plug-In . SVG Version: 6.00 Build 0)  -->

<svg
   xmlns:dc="http://purl.org/dc/elements/1.1/"
   xmlns:cc="http://creativecommons.org/ns#"
   xmlns:rdf="http://www.w3.org/1999/02/22-rdf-syntax-ns#"
   xmlns:svg="http://www.w3.org/2000/svg"
   xmlns="http://www.w3.org/2000/svg"
   xmlns:sodipodi="http://sodipodi.sourceforge.net/DTD/sodipodi-0.dtd"
   xmlns:inkscape="http://www.inkscape.org/namespaces/inkscape"
   version="1.1"
   id="Layer_1"
   x="0px"
   y="0px"
   viewBox="0 0 342 50.000001"
   xml:space="preserve"
   inkscape:version="0.91 r13725"
   sodipodi:docname="org-ciee-logo.svgz"
   width="342"
   height="50"><metadata
     id="metadata21"><rdf:RDF><cc:Work
         rdf:about=""><dc:format>image/svg+xml</dc:format><dc:type
           rdf:resource="http://purl.org/dc/dcmitype/StillImage" /><dc:title></dc:title></cc:Work></rdf:RDF></metadata><defs
     id="defs19" /><sodipodi:namedview
     pagecolor="#ffffff"
     bordercolor="#666666"
     borderopacity="1"
     objecttolerance="10"
     gridtolerance="10"
     guidetolerance="10"
     inkscape:pageopacity="0"
     inkscape:pageshadow="2"
     inkscape:window-width="2560"
     inkscape:window-height="1326"
     id="namedview17"
     showgrid="false"
     inkscape:zoom="2.8284271"
     inkscape:cx="204.17248"
     inkscape:cy="46.776115"
     inkscape:window-x="0"
     inkscape:window-y="1"
     inkscape:window-maximized="1"
     inkscape:current-layer="Layer_1" /><style
     type="text/css"
     id="style3">
	.st0{fill:#0091D1;}
	.st1{fill:#F39435;}
</style><path
     inkscape:connector-curvature="0"
     class="st0"
     d="M 32.294638,22.450424 C 31.515602,14.022662 25.000021,10.127478 16.997188,10.127478 6.0198502,10.127478 2e-5,18.838526 2e-5,29.17847 c 0,10.339943 4.9575072,19.759207 16.997168,19.759207 8.002833,0 14.447592,-5.028329 15.651558,-13.951842 l -2.76204,0 c -0.92068,6.798867 -5.949008,11.54391 -12.889518,11.54391 C 7.3654593,46.600565 2.6912382,39.235127 2.6912382,29.17847 c 0,-8.427763 4.9575072,-16.64306 14.3059498,-16.64306 6.728045,0 12.03966,3.399433 12.535411,9.985836 l 2.762039,0 z"
     id="path5"
     style="fill:#0091d1" /><rect
     x="39.730896"
     y="10.977336"
     class="st0"
     width="2.7620399"
     height="37.110485"
     id="rect7"
     style="fill:#0091d1" /><path
     inkscape:connector-curvature="0"
     class="st0"
     d="m 82.223818,29.886685 c 0.495751,-10.62323 -4.674221,-19.759207 -16.288955,-19.759207 -11.189802,0 -16.501417,9.915014 -16.359774,20.042493 -0.141643,10.269122 5.594901,18.767706 16.359774,18.767706 8.781873,0 14.589239,-4.745043 16.005669,-13.456091 l -2.76204,0 c -1.274787,6.869689 -6.303116,11.048159 -13.31445,11.048159 -9.135978,0 -13.810199,-7.932012 -13.668556,-16.64306 l 30.028332,0 z M 52.266308,27.549574 C 52.83288,20.184135 57.648744,12.53541 65.934863,12.53541 c 8.498587,0 13.456094,7.223796 13.597737,15.014164 l -27.266292,0 z"
     id="path9"
     style="fill:#0091d1" /><path
     inkscape:connector-curvature="0"
     class="st0"
     d="m 119.61759,29.886685 c 0.49575,-10.62323 -4.67422,-19.759207 -16.28896,-19.759207 -11.189797,0 -16.501412,9.915014 -16.359769,20.042493 -0.141643,10.269122 5.524079,18.767706 16.359769,18.767706 8.78187,0 14.58924,-4.745043 16.00567,-13.456091 l -2.76204,0 c -1.27479,6.869689 -6.30312,11.048159 -13.31445,11.048159 -9.135974,0 -13.810195,-7.932012 -13.668552,-16.64306 l 30.028332,0 z M 89.660079,27.549574 c 0.566572,-7.365439 5.382437,-15.014164 13.668551,-15.014164 8.49859,0 13.4561,7.223796 13.59774,15.014164 l -27.266291,0 z"
     id="path11-1"
     style="fill:#0091d1" /><path
     inkscape:connector-curvature="0"
     class="st1"
     d="m 48.725231,0.708215 c -1.203966,3.116148 -4.249292,5.382437 -7.86119,5.382437 -3.611898,0 -6.657221,-2.266289 -7.861187,-5.382437 L 34.773392,0 c 0.92068,2.407932 3.328609,4.17847 6.019827,4.17847 2.76204,0 5.099151,-1.699716 6.019831,-4.17847 l 1.912181,0.708215 z"
     id="path13-1"
     style="fill:#f39435" /><path
     inkscape:connector-curvature="0"
     class="st2"
     d="m 341.99998,48.15864 0,-19.050992 -2.26628,0 0,12.818697 -1.20397,-3.25779 -3.75354,-9.560907 -2.05383,0 0,18.980171 2.26629,0 0,-12.606233 1.27479,3.186969 3.96601,9.419264 1.77053,0 z M 330.881,29.107648 l -2.40793,0 0,18.980171 2.40793,0 0,-18.980171 z m -3.54107,19.050992 0,-2.195467 -4.95751,0 0,-16.855525 -2.33711,0 0,18.980171 7.29462,0 z M 315.79602,36.048158 c 0,1.203966 -0.6374,1.84136 -1.69972,1.84136 l -1.983,0 0,-6.586402 2.19547,0 c 1.06232,0 1.48725,0.566572 1.48725,1.628895 l 0,3.116147 z m 3.11615,12.252125 0,-1.699717 c -0.49576,0 -0.6374,-0.212464 -0.6374,-0.708215 l 0,-4.036827 c 0,-1.345609 -0.63739,-2.620397 -2.12464,-2.974504 1.48725,-0.354108 2.05382,-1.416431 2.05382,-3.045326 l 0,-2.903683 c 0,-2.620397 -1.34561,-3.824363 -3.82436,-3.824363 l -4.67422,0 0,18.980171 2.40793,0 0,-8.28612 2.12464,0 c 1.13315,0 1.6289,0.708216 1.6289,1.912182 l 0,4.320113 c 0,1.770539 0.63739,2.266289 2.40793,2.266289 l 0.6374,0 z m -10.62323,-0.141643 0,-2.195467 -5.09916,0 0,-6.657224 3.68272,0 0,-2.053825 -3.68272,0 0,-5.949008 5.09916,0 0,-2.195468 -7.43627,0 0,18.980171 7.43627,0 z m -11.47309,-3.753541 c 0,0.991501 -0.42493,1.558074 -1.41643,1.558074 l -2.33711,0 0,-6.515581 2.05382,0 c 1.06232,0 1.69972,0.637394 1.69972,1.84136 l 0,3.116147 z m -0.0708,-8.711048 c 0,1.203966 -0.56658,1.841359 -1.69972,1.841359 l -1.983,0 0,-6.303116 2.26628,0 c 1.06233,0 1.41644,0.566572 1.41644,1.628895 l 0,2.832862 z m 2.40793,8.640226 0,-2.762039 c 0,-1.628896 -0.56657,-2.76204 -2.12465,-3.116148 1.41643,-0.354107 2.05383,-1.41643 2.05383,-3.116147 l 0,-2.337111 c 0,-2.620396 -1.34561,-3.824362 -3.75355,-3.824362 l -4.67422,0 0,18.98017 4.74505,0 c 2.40793,0 3.75354,-1.203966 3.75354,-3.824363 m -17.28046,-16.997167 -1.48725,0 0,22.66289 1.48725,0 0,-22.66289 z m -9.77337,20.82153 0,-2.195467 -5.09915,0 0,-6.657224 3.68272,0 0,-2.053825 -3.68272,0 0,-5.949008 5.09915,0 0,-2.195468 -7.43626,0 0,18.980171 7.43626,0 z m -8.49858,-16.855524 0,-2.195468 -8.78187,0 0,2.195468 3.25779,0 0,16.784703 2.33711,0 0,-16.784703 3.18697,0 z m -9.77337,12.818697 0,-15.014165 -2.33711,0 0,15.014165 c 0,1.41643 -0.6374,2.195467 -2.05383,2.195467 -1.41643,0 -2.05382,-0.708215 -2.05382,-2.195467 l 0,-15.014165 -2.33711,0 0,15.014165 c 0,2.76204 1.84136,4.390935 4.39093,4.390935 2.54958,-0.07082 4.39094,-1.699717 4.39094,-4.390935 m -9.8442,-12.818697 0,-2.195468 -8.78187,0 0,2.195468 3.25779,0 0,16.784703 2.33712,0 0,-16.784703 3.18696,0 z m -9.84419,-2.195468 -2.40793,0 0,18.980171 2.40793,0 0,-18.980171 z m -3.47025,2.195468 0,-2.195468 -8.78187,0 0,2.195468 3.25779,0 0,16.784703 2.33711,0 0,-16.784703 3.18697,0 z m -9.27762,12.535411 c 0,-2.337111 -1.13315,-4.107649 -3.32862,-6.090652 -2.19546,-2.053824 -2.9745,-3.116147 -2.9745,-4.957507 0,-1.203966 0.63739,-1.912182 1.91218,-1.912182 1.41643,0 2.05383,0.991502 2.05383,2.478754 l 0,1.487252 2.26628,0 0,-1.770538 c 0,-2.478754 -1.62889,-4.249292 -4.24929,-4.249292 -2.83286,0 -4.32011,1.912181 -4.32011,4.461757 0,2.478753 1.91218,4.674221 3.68272,6.232294 1.91218,1.770539 2.6204,3.045326 2.6204,4.815864 0,1.34561 -0.70822,2.195468 -2.05383,2.195468 -1.34561,0 -2.05382,-0.92068 -2.05382,-2.478754 l 0,-1.487252 -2.33711,0 0,1.770538 c 0,2.478754 1.77053,4.249292 4.39093,4.249292 2.33711,-0.141643 4.39094,-1.628895 4.39094,-4.745042 m -10.1983,4.320113 0,-19.050992 -2.26629,0 0,12.818697 -1.20397,-3.25779 -3.75354,-9.560907 -2.05383,0 0,18.980171 2.26629,0 0,-12.606233 1.27479,3.186969 3.96601,9.419264 1.77054,0 z m -11.18981,-19.050992 -2.40793,0 0,18.980171 2.40793,0 0,-18.980171 z m -6.86969,19.050992 0,-2.195467 -4.9575,0 0,-16.855525 -2.33711,0 0,18.980171 7.29461,0 z m -11.82719,-6.515581 -2.6204,0 1.34561,-8.144476 1.27479,8.144476 z m 3.54108,6.515581 -3.54108,-18.98017 -2.47875,0 -3.54108,18.98017 2.26629,0 0.77903,-4.390935 3.39944,0 0.77903,4.390935 2.33712,0 z m -12.53542,-3.753541 c 0,0.991501 -0.42492,1.558074 -1.41643,1.558074 l -2.33711,0 0,-6.515581 2.05383,0 c 1.06232,0 1.69971,0.637394 1.69971,1.84136 l 0,3.116147 z m -0.0708,-8.711048 c 0,1.203966 -0.56657,1.841359 -1.69971,1.841359 l -1.98301,0 0,-6.303116 2.26629,0 c 1.06233,0 1.41643,0.566572 1.41643,1.628895 l 0,2.832862 z m 2.47876,8.640226 0,-2.762039 c 0,-1.628896 -0.56658,-2.76204 -2.12465,-3.116148 1.41643,-0.354107 2.05382,-1.41643 2.05382,-3.116147 l 0,-2.337111 c 0,-2.620396 -1.3456,-3.824362 -3.75354,-3.824362 l -4.74504,0 0,18.98017 4.74504,0 c 2.40794,0 3.82437,-1.203966 3.82437,-3.824363 m -12.67706,-0.283286 c 0,1.345609 -0.70821,2.266289 -2.12464,2.266289 -1.41643,0 -2.12465,-0.92068 -2.12465,-2.266289 l 0,-10.835694 c 0,-1.274788 0.70822,-2.266289 2.12465,-2.266289 1.41643,0 2.12464,0.991501 2.12464,2.266289 l 0,10.835694 z m 2.33711,-0.283286 0,-10.339943 c 0,-2.691219 -1.55807,-4.674222 -4.46175,-4.674222 -2.90369,0 -4.46176,1.983003 -4.46176,4.674222 l 0,10.339943 c 0,2.691218 1.55807,4.674221 4.46176,4.674221 2.90368,0 4.46175,-1.912181 4.46175,-4.674221 m -9.5609,4.390935 0,-2.195467 -4.95751,0 0,-16.855525 -2.33711,0 0,18.980171 7.29462,0 z m -8.99434,0 0,-9.631728 -4.32011,0 0,2.053824 2.05382,0 0,3.68272 c 0,1.133144 -0.70821,2.124646 -2.12464,2.124646 -1.48726,0 -2.12465,-0.991502 -2.12465,-2.124646 l 0,-11.260624 c 0,-1.062323 0.70822,-2.053824 2.12465,-2.053824 1.41643,0 2.05382,0.991501 2.05382,2.053824 l 0,2.195468 2.19547,0 0,-1.84136 c 0,-2.691218 -1.34561,-4.532578 -4.24929,-4.532578 -2.90369,0 -4.46176,2.053824 -4.46176,4.532578 l 0,10.62323 c 0,2.691218 1.55807,4.532578 4.10765,4.532578 1.48725,0 2.6204,-0.566572 3.11615,-1.628895 l 0.49575,1.274787 1.13314,0 z"
     id="path15-8"
     style="fill:#ffffff;fill-opacity:0.58823532" /><rect
     style="opacity:1;fill:#cdcecf;fill-opacity:0;fill-rule:evenodd;stroke:none;stroke-width:18;stroke-miterlimit:4;stroke-dasharray:none;stroke-opacity:1"
     id="rect4173"
     width="159.98291"
     height="28.107494"
     x="-16.970562"
     y="-38.211571" /></svg>